<?xml version="1.0" encoding="UTF-8" standalone="no"?>
<svg
   xmlns:dc="http://purl.org/dc/elements/1.1/"
   xmlns:cc="http://creativecommons.org/ns#"
   xmlns:rdf="http://www.w3.org/1999/02/22-rdf-syntax-ns#"
   xmlns:svg="http://www.w3.org/2000/svg"
   xmlns="http://www.w3.org/2000/svg"
   xmlns:sodipodi="http://sodipodi.sourceforge.net/DTD/sodipodi-0.dtd"
   xmlns:inkscape="http://www.inkscape.org/namespaces/inkscape"
   width="24"
   height="24"
   viewBox="0 0 24 24"
   version="1.1"
   id="svg8"
   sodipodi:docname="ic-check-connect-off.svg"
   style="fill:none"
   inkscape:version="0.92.3 (2405546, 2018-03-11)">
  <metadata
     id="metadata14">
    <rdf:RDF>
      <cc:Work
         rdf:about="">
        <dc:format>image/svg+xml</dc:format>
        <dc:type
           rdf:resource="http://purl.org/dc/dcmitype/StillImage" />
        <dc:title />
      </cc:Work>
    </rdf:RDF>
  </metadata>
  <defs
     id="defs12" />
  <sodipodi:namedview
     pagecolor="#ffffff"
     bordercolor="#666666"
     borderopacity="1"
     objecttolerance="10"
     gridtolerance="10"
     guidetolerance="10"
     inkscape:pageopacity="0"
     inkscape:pageshadow="2"
     inkscape:window-width="1920"
     inkscape:window-height="1015"
     id="namedview10"
     showgrid="false"
     inkscape:zoom="5.9"
     inkscape:cx="-8.8220339"
     inkscape:cy="20"
     inkscape:window-x="0"
     inkscape:window-y="0"
     inkscape:window-maximized="1"
     inkscape:current-layer="svg8" />
  <path
     d="m 11.800004,4.8499724 c 3.237383,0 6.257783,1.6574423 8.505703,4.6660093 L 21.6,7.7838397 C 19.006957,4.3122625 15.526089,2.4 11.800004,2.4 8.073836,2.4012155 4.5929688,4.3122625 2,7.7838397 l 1.2942179,1.732142 C 5.5421386,6.5074147 8.562622,4.8499724 11.800004,4.8499724 Z m 5.190545,10.1760426 c -2.813576,-3.765627 -7.567597,-3.765627 -10.3811724,0 l 1.2942094,1.732142 c 2.111605,-2.826016 5.681231,-2.826016 7.792754,0 z"
     id="path2"
     inkscape:connector-curvature="0"
     style="fill:#ff1709;stroke-width:0.95518279" />
  <path
     d="m 19.522989,11.334095 c -4.184653,-5.6031889 -11.258839,-5.6031889 -15.4435758,0 l 1.2942097,1.73214 c 3.4845001,-4.6635759 9.3707401,-4.6635759 12.8551571,0 z"
     id="path4"
     inkscape:connector-curvature="0"
     style="fill:#ff1709;stroke-width:0.95518279" />
  <path
     d="m 11.800252,22 c 1.011011,0 1.830553,-1.096968 1.830553,-2.450083 0,-1.353005 -0.819542,-2.449973 -1.830553,-2.449973 -1.01101,0 -1.830554,1.096968 -1.830554,2.449973 0,1.353115 0.819544,2.450083 1.830554,2.450083 z"
     id="path6"
     inkscape:connector-curvature="0"
     style="fill:#ff1709;stroke-width:0.95518279" />
</svg>
