<?xml version="1.0" encoding="UTF-8" standalone="no"?>
<svg
   xmlns:dc="http://purl.org/dc/elements/1.1/"
   xmlns:cc="http://creativecommons.org/ns#"
   xmlns:rdf="http://www.w3.org/1999/02/22-rdf-syntax-ns#"
   xmlns:svg="http://www.w3.org/2000/svg"
   xmlns="http://www.w3.org/2000/svg"
   xmlns:sodipodi="http://sodipodi.sourceforge.net/DTD/sodipodi-0.dtd"
   xmlns:inkscape="http://www.inkscape.org/namespaces/inkscape"
   width="30"
   height="30"
   viewBox="0 0 30 30"
   version="1.1"
   id="svg4"
   sodipodi:docname="ic-drop-down-white.svg"
   style="fill:none"
   inkscape:version="0.92.3 (2405546, 2018-03-11)">
  <metadata
     id="metadata10">
    <rdf:RDF>
      <cc:Work
         rdf:about="">
        <dc:format>image/svg+xml</dc:format>
        <dc:type
           rdf:resource="http://purl.org/dc/dcmitype/StillImage" />
        <dc:title></dc:title>
      </cc:Work>
    </rdf:RDF>
  </metadata>
  <defs
     id="defs8" />
  <sodipodi:namedview
     pagecolor="#ffffff"
     bordercolor="#666666"
     borderopacity="1"
     objecttolerance="10"
     gridtolerance="10"
     guidetolerance="10"
     inkscape:pageopacity="0"
     inkscape:pageshadow="2"
     inkscape:window-width="1920"
     inkscape:window-height="1015"
     id="namedview6"
     showgrid="false"
     inkscape:zoom="26.222222"
     inkscape:cx="6.5"
     inkscape:cy="4.5"
     inkscape:window-x="0"
     inkscape:window-y="0"
     inkscape:window-maximized="1"
     inkscape:current-layer="svg4" />
  <path
     d="m 18.954299,12.678654 c -0.03398,-0.05385 -0.08493,-0.09895 -0.147392,-0.130432 -0.06246,-0.03148 -0.13408,-0.04816 -0.20704,-0.04822 h -7.200686 c -0.07287,2.51e-4 -0.144277,0.01705 -0.206546,0.04858 -0.06227,0.03153 -0.113042,0.07662 -0.146859,0.1304 -0.03382,0.05378 -0.0494,0.114227 -0.04507,0.174835 0.0043,0.06061 0.02841,0.119085 0.06964,0.169144 l 3.600335,4.333041 c 0.0367,0.04441 0.08581,0.08072 0.143084,0.105808 0.05729,0.02508 0.121031,0.03819 0.185741,0.03819 0.06472,0 0.128461,-0.01311 0.185741,-0.03819 0.05729,-0.02509 0.106393,-0.0614 0.143091,-0.105808 l 3.600356,-4.333036 c 0.0416,-0.04996 0.06605,-0.108469 0.07053,-0.169174 0.0045,-0.0607 -0.01101,-0.121279 -0.04493,-0.175136 z m -3.954788,3.902066 -2.83706,-3.414097 h 5.674153 z"
     id="path2"
     inkscape:connector-curvature="0"
     style="fill:#ffffff;stroke-width:0.60764331" />
</svg>
