<svg width="21" height="21" viewBox="0 0 21 21" fill="none" xmlns="http://www.w3.org/2000/svg">
<path d="M19.7349 12.1582C19.7069 12.1276 19.6725 12.1034 19.6342 12.0874C19.5958 12.0713 19.5545 12.0638 19.5129 12.0653H16.7557C16.4523 12.0645 16.1552 12.152 15.9009 12.317C15.6465 12.4821 15.4458 12.7175 15.3233 12.9946H14.292C15.4194 12.1943 16.2627 11.057 16.7002 9.74702C17.1377 8.43704 17.1466 7.02218 16.7257 5.7068C16.3049 4.39141 15.476 3.2436 14.3589 2.42915C13.2417 1.6147 11.8941 1.17578 10.5107 1.17578C9.12722 1.17578 7.7796 1.6147 6.66244 2.42915C5.54528 3.2436 4.71641 4.39141 4.29556 5.7068C3.87471 7.02218 3.88366 8.43704 4.32112 9.74702C4.75858 11.057 5.6019 12.1943 6.72928 12.9946H5.69083C5.56912 12.717 5.3686 12.481 5.11406 12.3159C4.85951 12.1507 4.56208 12.0636 4.25849 12.0653H1.48691C1.44649 12.0643 1.40635 12.0722 1.36926 12.0882C1.33216 12.1042 1.299 12.1281 1.27206 12.1582C1.21394 12.2147 1.18049 12.2917 1.17896 12.3727V17.6481C1.17896 18.2168 1.40532 18.7623 1.80824 19.1644C2.21116 19.5666 2.75765 19.7925 3.32747 19.7925H17.6509C18.2207 19.7925 18.7672 19.5666 19.1701 19.1644C19.573 18.7623 19.7994 18.2168 19.7994 17.6481V12.3727C19.8064 12.2956 19.7833 12.2187 19.7349 12.1582ZM4.58076 7.70488C4.57935 6.5382 4.92466 5.39732 5.57303 4.42657C6.22139 3.45583 7.14366 2.69884 8.22315 2.2514C9.30265 1.80395 10.4909 1.68614 11.6374 1.91288C12.784 2.13962 13.8375 2.70072 14.6645 3.52519C15.4915 4.34965 16.055 5.40043 16.2835 6.54459C16.5121 7.68875 16.3955 8.87486 15.9485 9.95287C15.5015 11.0309 14.7442 11.9523 13.7724 12.6006C12.8007 13.249 11.658 13.595 10.4892 13.595C8.9234 13.595 7.42166 12.9747 6.31383 11.8703C5.20599 10.7659 4.58266 9.2677 4.58076 7.70488V7.70488ZM7.76772 13.6165C8.62005 14.0127 9.54892 14.218 10.4892 14.218C11.4294 14.218 12.3583 14.0127 13.2106 13.6165H15.1085L14.7862 14.7888C14.7394 14.9911 14.6256 15.1718 14.4631 15.3015C14.3006 15.4313 14.099 15.5025 13.891 15.5036H7.10168C6.89305 15.5016 6.69105 15.4302 6.52763 15.3007C6.3642 15.1712 6.24867 14.9911 6.19931 14.7888L5.87703 13.6165H7.76772ZM19.2264 17.6481C19.2264 18.0595 19.0627 18.454 18.7713 18.7449C18.4798 19.0358 18.0845 19.1992 17.6724 19.1992H3.34895C2.93678 19.1992 2.54149 19.0358 2.25004 18.7449C1.9586 18.454 1.79486 18.0595 1.79486 17.6481V12.6872H4.26565C4.47461 12.688 4.67723 12.7589 4.84091 12.8886C5.00459 13.0182 5.1198 13.1991 5.16802 13.402L5.60489 14.9818C5.69326 15.3104 5.88791 15.6007 6.15859 15.8075C6.42926 16.0143 6.7608 16.1261 7.10168 16.1255H13.891C14.2313 16.1237 14.5616 16.011 14.8318 15.8046C15.102 15.5981 15.2972 15.3092 15.3878 14.9818L15.8175 13.402C15.8668 13.1997 15.9824 13.0195 16.1458 12.8901C16.3092 12.7606 16.5112 12.6892 16.7199 12.6872H19.1906L19.2264 17.6481Z" fill="#262642" stroke="#262642" stroke-miterlimit="10"/>
<path d="M12 6.91232H11.3711C11.1308 6.91262 10.9361 7.11579 10.9358 7.36651V11H10.0652V7.36651C10.0649 7.11579 9.87026 6.91262 9.62994 6.91232L9 6.91365L9.00107 6.91232L10.5005 5L12 6.91232Z" fill="#262642" stroke="#262642" stroke-linecap="square"/>
</svg>
